HIERARCHY
ROOT Hips
{
	OFFSET 0.000000 0.000000 0.000000
	CHANNELS 6 Xposition Yposition Zposition Xrotation Yrotation Zrotation
	JOINT LeftUpLeg_virtual
	{
		OFFSET 0.000000 0.000000 0.000000
		CHANNELS 3 Xrotation Yrotation Zrotation
		JOINT LeftUpLeg
		{
			OFFSET 11.394100 -6.187798 -0.413800
			CHANNELS 3 Xrotation Yrotation Zrotation
			JOINT LeftLeg
			{
				OFFSET 0.430247 -32.302673 3.732800
				CHANNELS 3 Xrotation Yrotation Zrotation
				JOINT LeftFoot
				{
					OFFSET -0.430247 -48.264931 -6.423300
					CHANNELS 3 Xrotation Yrotation Zrotation
					JOINT LeftToeBase
					{
						OFFSET 4.230900 -16.068199 23.438400
						CHANNELS 3 Xrotation Yrotation Zrotation
						JOINT LeftToe_End
						{
							OFFSET 4.510700 0.695400 19.974600
							CHANNELS 3 Xrotation Yrotation Zrotation
							End Site
							{
								OFFSET 0 0 0
							}
						}
					}
				}
			}
		}
	}
	JOINT RightUpLeg_virtual
	{
		OFFSET 0.000000 0.000000 0.000000
		CHANNELS 3 Xrotation Yrotation Zrotation
		JOINT RightUpLeg
		{
			OFFSET -11.333700 -6.187798 -0.413800
			CHANNELS 3 Xrotation Yrotation Zrotation
			JOINT RightLeg
			{
				OFFSET -0.430392 -32.302628 3.733000
				CHANNELS 3 Xrotation Yrotation Zrotation
				JOINT RightFoot
				{
					OFFSET 0.430392 -48.264973 -6.423500
					CHANNELS 3 Xrotation Yrotation Zrotation
					JOINT RightToeBase
					{
						OFFSET -4.230900 -16.068199 23.438400
						CHANNELS 3 Xrotation Yrotation Zrotation
						JOINT RightToe_End
						{
							OFFSET -4.510700 0.695400 19.974600
							CHANNELS 3 Xrotation Yrotation Zrotation
							End Site
							{
								OFFSET 0 0 0
							}
						}
					}
				}
			}
		}
	}
	JOINT Spine_virtual
	{
		OFFSET 0.000000 0.000000 0.000000
		CHANNELS 3 Xrotation Yrotation Zrotation
		JOINT Spine
		{
			OFFSET -0.002400 12.777504 0.315300
			CHANNELS 3 Xrotation Yrotation Zrotation
			JOINT Spine1
			{
				OFFSET -0.002067 5.816869 0.032633
				CHANNELS 3 Xrotation Yrotation Zrotation
				JOINT Spine1_split
				{
					OFFSET -0.002067 5.816869 0.032633
					CHANNELS 3 Xrotation Yrotation Zrotation
					JOINT Spine2
					{
						OFFSET -0.002067 5.816869 0.032633
						CHANNELS 3 Xrotation Yrotation Zrotation
						JOINT Neck_virtual
						{
							OFFSET 0.000000 0.000000 0.000000
							CHANNELS 3 Xrotation Yrotation Zrotation
							JOINT Neck
							{
								OFFSET -0.003700 21.199493 -0.826900
								CHANNELS 3 Xrotation Yrotation Zrotation
								JOINT Head
								{
									OFFSET 0.000000 20.442200 4.834800
									CHANNELS 3 Xrotation Yrotation Zrotation
									JOINT HeadTop_End
									{
										OFFSET 0.000000 34.668396 4.968400
										CHANNELS 3 Xrotation Yrotation Zrotation
										End Site
										{
											OFFSET 0 0 0
										}
									}
								}
							}
						}
						JOINT LeftShoulder_virtual
						{
							OFFSET 0.000000 0.000000 0.000000
							CHANNELS 3 Xrotation Yrotation Zrotation
							JOINT LeftShoulder
							{
								OFFSET 3.288150 8.794197 -1.372250
								CHANNELS 3 Xrotation Yrotation Zrotation
								JOINT LeftShoulder_split
								{
									OFFSET 3.288150 8.794197 -1.372250
									CHANNELS 3 Xrotation Yrotation Zrotation
									JOINT LeftArm
									{
										OFFSET 11.953299 -2.279007 -0.146200
										CHANNELS 3 Xrotation Yrotation Zrotation
										JOINT LeftForeArm
										{
											OFFSET 18.448900 0.000000 0.000000
											CHANNELS 3 Xrotation Yrotation Zrotation
											JOINT LeftHand
											{
												OFFSET 29.527798 0.000000 0.000000
												CHANNELS 3 Xrotation Yrotation Zrotation
												End Site
												{
													OFFSET 0 0 0
												}
											}
										}
									}
								}
							}
						}
						JOINT RightShoulder_virtual
						{
							OFFSET 0.000000 0.000000 0.000000
							CHANNELS 3 Xrotation Yrotation Zrotation
							JOINT RightShoulder
							{
								OFFSET -3.249400 8.794197 -1.372250
								CHANNELS 3 Xrotation Yrotation Zrotation
								JOINT RightShoulder_split
								{
									OFFSET -3.249400 8.794197 -1.372250
									CHANNELS 3 Xrotation Yrotation Zrotation
									JOINT RightArm
									{
										OFFSET -11.953299 -2.279007 -0.146200
										CHANNELS 3 Xrotation Yrotation Zrotation
										JOINT RightForeArm
										{
											OFFSET -18.448900 0.000000 0.000000
											CHANNELS 3 Xrotation Yrotation Zrotation
											JOINT RightHand
											{
												OFFSET -29.527802 0.000000 0.000000
												CHANNELS 3 Xrotation Yrotation Zrotation
												End Site
												{
													OFFSET 0 0 0
												}
											}
										}
									}
								}
							}
						}
					}
				}
			}
		}
	}
}
MOTION
Frames: 6
Frame Time: 0.03333333
4.214107 79.141312 -3.339043 0.000000 0.000000 0.000000 2.372342 -54.886902 4.053181 -54.700133 -3.762609 24.986359 47.794102 -3.467287 1.670315 5.230654 -10.079607 -17.822153 -0.755823 0.280084 0.873020 0.000000 0.000000 0.000000 0.917568 -54.687829 3.750906 -36.306625 -23.572673 -40.974858 49.308642 12.063311 -4.144973 -17.967991 -7.441293 20.809858 1.844505 0.911425 -0.530480 0.000000 0.000000 0.000000 4.170434 -51.886082 4.737173 8.754002 10.103264 -1.440402 3.577905 4.717122 -1.402057 0.391397 -0.163603 -0.058833 0.000000 0.000000 0.000000 3.864708 4.879761 -1.137153 -2.560303 2.956010 3.220429 -5.155723 39.998110 -6.485769 0.000000 0.000000 0.000000 4.326846 4.789586 -1.900727 0.423075 -8.495893 -15.832884 -6.145841 2.067354 1.331596 -11.797543 -39.472070 -19.813358 -6.326996 -66.644990 -3.162340 0.000000 0.000000 0.000000 5.666918 5.266828 -1.500345 -4.918818 20.475580 -19.507811 1.893330 -4.962117 -4.206491 -31.905596 28.257891 29.874653 -128.142067 88.119761 127.378302 0.000000 0.000000 0.000000 
4.515529 79.696793 -3.420235 0.000000 0.000000 0.000000 2.159230 -56.360614 4.085901 -53.894451 -2.516532 25.704392 47.185621 -3.898249 1.592646 5.021870 -9.201385 -18.062160 -0.808994 0.343484 0.466307 0.000000 0.000000 0.000000 0.882935 -55.782684 3.702068 -37.402437 -22.829156 -40.521463 48.931595 11.526074 -3.999828 -16.268332 -6.901172 20.105302 2.401218 0.929270 -0.546658 0.000000 0.000000 0.000000 3.572828 -52.860060 4.351255 10.340587 10.261697 -1.960585 3.666288 4.473810 -1.547994 0.267146 0.019359 -0.145249 0.000000 0.000000 0.000000 3.685745 4.692100 -1.151206 -2.485408 2.773052 3.615044 -8.152884 39.466585 -5.852698 0.000000 0.000000 0.000000 4.808147 4.353404 -1.867708 0.783661 -8.698842 -15.851074 -7.392713 2.284797 1.014113 -20.936237 -38.500485 -25.704488 -4.896181 -67.539178 -1.981622 0.000000 0.000000 0.000000 5.856772 5.075252 -1.273036 -1.756401 20.586144 -14.250233 1.790511 -4.302021 -3.909175 -22.246233 32.600322 24.991655 -169.922320 84.280908 169.208648 0.000000 0.000000 0.000000 
4.762398 80.461639 -3.499809 0.000000 0.000000 0.000000 2.100637 -58.537453 3.943066 -52.454705 -0.852117 26.853194 46.308027 -4.689047 1.582145 3.830410 -7.996244 -18.398486 -1.054701 0.345513 0.105488 0.000000 0.000000 0.000000 0.866547 -57.855589 3.409775 -38.472803 -21.847511 -39.609869 47.651877 10.968187 -3.847413 -13.942154 -6.134983 19.527675 2.694495 0.913789 -0.440411 0.000000 0.000000 0.000000 2.968681 -54.812275 3.721551 11.895866 10.016836 -2.680626 3.692445 4.064267 -1.768045 0.407532 0.014665 -0.083658 0.000000 0.000000 0.000000 3.558057 4.251694 -1.322066 -2.698411 2.546372 3.946412 -10.438270 39.863801 -5.205221 0.000000 0.000000 0.000000 5.147105 3.771092 -1.900082 1.178452 -8.471316 -14.955621 -8.405997 2.407465 0.710872 -29.848207 -36.567036 -30.110237 -2.668572 -68.303920 -0.121308 0.000000 0.000000 0.000000 5.848777 4.642368 -1.319411 0.647063 20.079728 -10.318694 1.940569 -2.729695 -3.087717 -14.112956 34.670904 18.352081 -174.470052 81.447281 173.571076 0.000000 0.000000 0.000000 
4.956460 81.386520 -3.564392 0.000000 0.000000 0.000000 2.012023 -61.467359 3.497131 -50.326958 1.112264 28.376542 45.455937 -5.765784 1.599088 1.971219 -6.509033 -18.756239 -1.554740 0.276527 -0.166576 0.000000 0.000000 0.000000 0.858037 -60.762278 2.871674 -39.551693 -20.650964 -38.255278 45.582470 10.455410 -3.697144 -11.231869 -5.074800 19.045755 2.864206 0.845887 -0.179033 0.000000 0.000000 0.000000 2.274640 -57.542329 2.788655 13.167984 9.501426 -3.582125 3.697876 3.627005 -2.022225 0.519917 0.152883 0.019601 0.000000 0.000000 0.000000 3.500119 3.702724 -1.566253 -3.210215 2.256991 4.274641 -11.712956 41.087515 -4.504459 0.000000 0.000000 0.000000 5.314705 3.200454 -1.969425 1.508723 -8.092339 -13.230245 -9.221377 2.334897 0.500982 -37.083146 -33.905954 -31.414516 -0.145031 -69.791788 1.978408 0.000000 0.000000 0.000000 5.720094 4.115061 -1.578947 2.377149 19.349274 -7.976143 1.920480 -0.970181 -1.743820 -9.544708 37.528126 11.889491 -173.328590 82.103846 172.005815 0.000000 0.000000 0.000000 
5.139151 82.375961 -3.632999 0.000000 0.000000 0.000000 2.026019 -65.207174 2.903900 -47.656644 3.248936 30.136652 44.903993 -6.932827 1.625986 -0.215038 -4.637534 -18.933739 -1.963241 0.142277 -0.411536 0.000000 0.000000 0.000000 0.729580 -64.425431 2.049339 -40.684111 -19.309770 -36.557433 42.947338 9.961255 -3.510439 -8.440101 -3.688514 18.526560 3.028120 0.731243 0.200458 0.000000 0.000000 0.000000 1.492529 -61.033389 1.586305 13.962927 8.810032 -4.603661 3.737220 3.259143 -2.230223 0.923343 0.207156 0.096856 0.000000 0.000000 0.000000 3.540473 3.173825 -1.786066 -4.021334 2.109546 4.529414 -11.981442 43.156953 -3.736633 0.000000 0.000000 0.000000 5.343196 2.756700 -2.044068 1.732804 -7.720603 -10.931146 -9.628122 2.193663 0.724442 -41.444553 -30.831706 -29.111455 1.862630 -72.350281 3.656370 0.000000 0.000000 0.000000 5.548779 3.608513 -1.905143 3.418250 18.382638 -7.200007 1.249618 0.028911 0.142884 -9.105098 43.299841 6.809350 -165.620312 85.052794 163.730672 0.000000 0.000000 0.000000 
5.265384 83.358704 -3.729919 0.000000 0.000000 0.000000 1.947058 -69.572662 2.155768 -44.505342 5.554761 32.039048 44.598697 -8.032177 1.649856 -2.378397 -2.454209 -18.903206 -2.206032 -0.026551 -0.615286 0.000000 0.000000 0.000000 0.420138 -68.555087 1.031890 -41.902633 -17.848898 -34.677427 40.113448 9.486527 -3.321190 -5.721397 -1.997451 17.945279 3.296368 0.609957 0.602333 0.000000 0.000000 0.000000 0.416103 -65.040606 0.093492 14.133764 7.954118 -5.685740 3.802213 2.977894 -2.322361 1.305781 -0.389495 0.068801 0.000000 0.000000 0.000000 3.681304 2.682965 -1.847518 -5.001600 2.312668 4.666921 -11.199898 46.122707 -3.152239 0.000000 0.000000 0.000000 5.250480 2.473798 -2.049480 1.880160 -7.532268 -8.288523 -9.727844 2.041407 1.442988 -43.026579 -26.746869 -24.060550 2.896351 -75.020421 4.509753 0.000000 0.000000 0.000000 5.395038 3.145223 -2.146344 3.737673 16.972101 -7.626138 0.503615 0.212839 1.878885 -13.386697 51.319521 5.159822 -142.951242 87.451857 140.605181 0.000000 0.000000 0.000000 
